# File created by Blade
# Date/Time:  Tue Apr 07 20:49:23 2015
# Frame Rate: 120.000 fps
#------------------------------------------------------
:FULLY-SPECIFIED
:DEGREES
922
root 2.280108 34.475048 -7.404309 17.028148 53.536687 -74.289555
Spine -30.770850 -11.759614 14.848492
Head -24.387742 34.606602 22.809092
LeftShoulder -28.634744 42.006477 21.120274
LeftArm 77.958533 -57.761172 -91.460307
LeftForeArm 18.557625 -0.000000 25.252445
LeftHand 7.813052 -0.000000 21.868388
LeftHandThumb1 -26.253704 0.000000 33.147579
RightShoulder -25.041338 -11.771190 -20.837693
RightArm -31.629857 43.467282 44.074677
RightForeArm 73.444253 -0.000000 -6.058400
RightHand 12.022145 -0.000000 21.572196
RightHandThumb1 -24.326973 -0.000000 -32.862282
LeftUpLeg -69.025764 31.636313 21.556010
LeftLeg -16.380666 -0.000000 0.000000
LeftFoot 10.115707 15.827412 -17.967205
LeftToeBase -10.384050 -0.000000 0.000000
RightUpLeg 16.365871 16.251621 -22.920010
RightLeg 97.184210 -0.000000 -0.000000
RightFoot 52.035502 11.716776 -1.099129
RightToeBase 17.054576 -0.000000 -0.000000
923
root 2.328644 34.473000 -7.388033 16.868593 53.335092 -74.151228
Spine -30.641153 -11.788274 14.819459
Head -24.017886 34.667461 22.868211
LeftShoulder -28.722437 42.162186 20.705613
LeftArm 76.866064 -57.206300 -90.670721
LeftForeArm 18.540912 -0.000000 24.932304
LeftHand 7.771652 -0.000000 21.735605
LeftHandThumb1 -26.253704 0.000000 33.147579
RightShoulder -25.089172 -11.870112 -20.696508
RightArm -31.611644 43.935833 44.400088
RightForeArm 73.437109 -0.000000 -5.975912
RightHand 12.178951 -0.000000 21.325694
RightHandThumb1 -24.326973 -0.000000 -32.862282
LeftUpLeg -68.653331 31.672677 21.303217
LeftLeg -16.525763 -0.000000 0.000000
LeftFoot 10.141855 15.876664 -17.595038
LeftToeBase -10.440489 -0.000000 0.000000
RightUpLeg 15.984311 16.149556 -22.751558
RightLeg 97.702835 -0.000000 -0.000000
RightFoot 51.946600 12.034640 -0.971983
RightToeBase 17.436311 -0.000000 -0.000000
924
root 2.374202 34.469898 -7.371751 16.732942 53.156355 -73.987381
Spine -30.527186 -11.889034 14.802082
Head -23.669280 34.783775 22.966957
LeftShoulder -28.869139 42.353778 20.268803
LeftArm 75.748391 -56.654602 -89.842734
LeftForeArm 18.506521 -0.000000 24.597960
LeftHand 7.873729 -0.000000 21.449526
LeftHandThumb1 -26.253704 0.000000 33.147579
RightShoulder -25.072633 -11.947318 -20.552009
RightArm -31.681672 44.463445 44.634475
RightForeArm 73.371896 -0.000000 -5.821817
RightHand 12.257489 -0.000000 21.147699
RightHandThumb1 -24.326973 -0.000000 -32.862282
LeftUpLeg -68.282004 31.683724 21.065773
LeftLeg -16.667139 -0.000000 0.000000
LeftFoot 10.147435 15.923002 -17.200535
LeftToeBase -10.447806 -0.000000 0.000000
RightUpLeg 15.639373 16.068238 -22.586196
RightLeg 98.188666 -0.000000 -0.000000
RightFoot 51.803563 12.307133 -0.658443
RightToeBase 17.746428 -0.000000 -0.000000
925
root 2.418855 34.466851 -7.363040 16.678123 53.043048 -73.748155
Spine -30.440493 -11.974043 14.724736
Head -23.376486 34.824122 23.066624
LeftShoulder -28.882166 42.531210 19.957361
LeftArm 74.726666 -56.047718 -89.218497
LeftForeArm 18.375948 -0.000000 24.336356
LeftHand 7.855876 -0.000000 21.300326
LeftHandThumb1 -26.253704 0.000000 33.147579
RightShoulder -25.113540 -12.052391 -20.339993
RightArm -31.624011 44.791313 44.995504
RightForeArm 73.408370 -0.000000 -5.681998
RightHand 12.385055 0.000000 21.029053
RightHandThumb1 -24.326973 -0.000000 -32.862282
LeftUpLeg -67.982183 31.612491 20.786402
LeftLeg -16.758473 -0.000000 0.000000
LeftFoot 10.116074 15.976767 -16.825470
LeftToeBase -10.348183 -0.000000 0.000000
RightUpLeg 15.292940 15.899054 -22.483983
RightLeg 98.640082 -0.000000 -0.000000
RightFoot 51.821426 12.544210 -0.481750
RightToeBase 17.695852 -0.000000 -0.000000
926
root 2.461875 34.461706 -7.350679 16.628794 52.927801 -73.455764
Spine -30.321953 -12.096381 14.598315
Head -23.120673 34.875727 23.162740
LeftShoulder -28.908576 42.694419 19.701965
LeftArm 73.773128 -55.405057 -88.751278
LeftForeArm 18.278777 -0.000000 24.117682
LeftHand 7.822396 0.000000 21.187711
LeftHandThumb1 -26.253704 0.000000 33.147579
RightShoulder -25.129390 -12.125509 -20.056323
RightArm -31.429964 44.883106 45.464039
RightForeArm 73.830841 -0.000000 -5.652261
RightHand 12.520658 -0.000000 21.094285
RightHandThumb1 -24.326973 -0.000000 -32.862282
LeftUpLeg -67.634372 31.535460 20.511866
LeftLeg -16.835080 -0.000000 0.000000
LeftFoot 10.045595 15.986416 -16.475690
LeftToeBase -10.302569 -0.000000 0.000000
RightUpLeg 14.994228 15.699930 -22.439641
RightLeg 99.105302 -0.000000 -0.000000
RightFoot 51.813469 12.673965 -0.487559
RightToeBase 17.418344 -0.000000 -0.000000
927
root 2.504343 34.454719 -7.336014 16.546673 52.876811 -73.203199
Spine -30.240661 -12.279140 14.540254
Head -22.829400 34.943766 23.276683
LeftShoulder -28.852914 42.811359 19.558156
LeftArm 72.707271 -54.772997 -88.330131
LeftForeArm 18.061934 -0.000000 23.948888
LeftHand 7.974874 0.000000 21.045038
LeftHandThumb1 -26.253704 0.000000 33.147579
RightShoulder -25.112516 -12.192026 -19.791928
RightArm -31.298014 44.952010 45.865130
RightForeArm 74.054187 0.000000 -5.597226
RightHand 12.603169 -0.000000 21.273727
RightHandThumb1 -24.326973 -0.000000 -32.862282
LeftUpLeg -67.291423 31.407676 20.329581
LeftLeg -16.899717 -0.000000 0.000000
LeftFoot 9.982684 16.036612 -16.135739
LeftToeBase -10.233997 -0.000000 0.000000
RightUpLeg 14.732794 15.431184 -22.355307
RightLeg 99.531856 -0.000000 -0.000000
RightFoot 51.979442 12.558821 -0.556074
RightToeBase 17.290785 -0.000000 -0.000000
928
root 2.542891 34.448192 -7.329660 16.435282 52.827240 -72.943074
Spine -30.076844 -12.459399 14.520654
Head -22.682735 34.990287 23.206196
LeftShoulder -29.152582 43.210618 18.880106
LeftArm 72.685066 -54.177439 -88.589975
LeftForeArm 17.904163 -0.000000 23.646237
LeftHand 8.080728 0.000000 20.960401
LeftHandThumb1 -26.253704 0.000000 33.147579
RightShoulder -25.117969 -12.161330 -19.616587
RightArm -31.279794 45.018446 46.206089
RightForeArm 74.242112 0.000000 -5.474104
RightHand 12.660328 -0.000000 21.505829
RightHandThumb1 -24.326973 -0.000000 -32.862282
LeftUpLeg -66.897879 31.231600 20.239758
LeftLeg -16.950203 -0.000000 0.000000
LeftFoot 9.901208 16.191191 -15.762862
LeftToeBase -10.155931 -0.000000 0.000000
RightUpLeg 14.517849 15.229727 -22.307706
RightLeg 100.036236 -0.000000 -0.000000
RightFoot 51.794625 12.433722 -0.574825
RightToeBase 17.836002 -0.000000 -0.000000
929
root 2.580375 34.441420 -7.328692 16.318250 52.808133 -72.680196
Spine -29.910566 -12.607227 14.464649
Head -22.506502 34.966292 23.211027
LeftShoulder -29.082590 43.275068 18.707935
LeftArm 72.095508 -53.566328 -88.652054
LeftForeArm 17.893133 -0.000000 23.408444
LeftHand 8.159642 -0.000000 20.814696
LeftHandThumb1 -26.253704 0.000000 33.147579
RightShoulder -25.112006 -12.079607 -19.439041
RightArm -31.259174 44.909466 46.578230
RightForeArm 74.784417 -0.000000 -5.425597
RightHand 12.742676 -0.000000 21.748042
RightHandThumb1 -24.326973 -0.000000 -32.862282
LeftUpLeg -66.495847 30.994339 20.217391
LeftLeg -16.975398 -0.000000 0.000000
LeftFoot 9.833476 16.388727 -15.308711
LeftToeBase -10.052755 -0.000000 0.000000
RightUpLeg 14.285245 14.919595 -22.315165
RightLeg 100.462015 -0.000000 -0.000000
RightFoot 52.140074 12.140202 -0.861224
RightToeBase 17.292671 -0.000000 -0.000000
